<svg xmlns="http://www.w3.org/2000/svg" viewBox="48.895999908447266 12.951000213623047 926.72802734375 1007.0490112304688" role="img" aria-hidden="true" overflow="visible">
  <g fill="none" stroke="#4f83ff" stroke-width="45" stroke-linecap="round" stroke-linejoin="round">
    <path d="M 779.157,702.684 C 786.16,690.294 788.694,681.265 789.35,627.863"></path>
    <path d="M 790.607,479.248 C 791.667,454.708 795.404,439.774 798.527,432.82 C 803.858,424.503 811.173,416.103 817.682,410.312 C 824.329,405.725 832.785,401.487 842.035,398.347 C 849.384,397.002 861.377,396.538 870.343,397.36 C 879.312,399.379 888.347,402.795 902.087,411.362 C 910.67,419.503 920.164,432.954 925.745,446.764 C 927.481,455.816 928.035,464.751 927.76,544.679"></path>
    <path d="M 926.289,748.937 C 925.862,766.812 924.364,780.249 921.172,793.718 C 915.758,807.705 908.347,820.965 898.413,834.419 C 890.407,843.108 876.989,854.854 868.099,861.055 C 854.491,868.522 840.922,873.757 827.555,876.815 C 814.12,878.014 800.767,877.773 787.387,876.03 L 769.653,871.753"></path>
    <path d="M 191.154,852.349 L 191.278,1020.0"></path>
    <path d="M 48.896,1017.04 L 49.048,847.809"></path>
    <path d="M 623.5,1018.263 L 622.906,823.11"></path>
    <path d="M 733.942,136.526 L 856.899,12.951"></path>
    <path d="M 856.297,315.199 L 859.291,15.398"></path>
    <path d="M 975.624,134.146 L 859.291,15.398"></path>
    <circle cx="391.72589150432077" cy="324.53300344211885" r="189.02630232344532"></circle>
    <path d="M 789.35,627.863 L 790.607,479.248"></path>
    <path d="M 927.76,544.679 L 926.289,748.937"></path>
    <path d="M 769.653,871.753 L 622.906,823.11"></path>
    <path d="M 48.90020282529781,847.797223638957 A 294.45887508103436,294.45887508103436 0 0,1 340.0595723304197,576.736002883227"></path>
    <path d="M 340.063,577.162 L 466.528,578.18"></path>
    <path d="M 466.51813998972887,578.2929709254936 A 354.3985126253954,354.3985126253954 0 0,1 585.3547342460756,610.0972765987967"></path>
    <path d="M 585.278,610.262 L 779.157,702.684"></path>
  </g>
</svg>