<svg xmlns="http://www.w3.org/2000/svg" viewBox="4.386569976806641 289.0029296875 1015.2581176757812 446.069091796875" role="img" aria-hidden="true" overflow="visible">
  <g fill="none" stroke="#4f83ff" stroke-width="45" stroke-linecap="round" stroke-linejoin="round">
    <path d="M 366.493,335.922 C 344.121,320.858 317.627,307.534 291.063,298.137 C 277.827,294.772 260.085,291.538 242.479,289.747 C 229.11,289.339 197.37,291.039 181.299,293.64 C 168.341,296.75 141.032,306.126 127.284,312.597 C 113.184,320.512 90.538,336.449 79.142,346.135 C 68.452,356.531 56.869,369.49 48.515,380.192 C 32.672,404.659 24.84,419.878 19.652,432.01 C 14.894,445.073 9.969,462.294 6.943,476.747 C 4.876,492.354 4.0,510.124 4.545,525.374 C 8.696,556.877 12.545,572.816 16.743,585.904 C 22.544,600.662 29.63,615.324 36.561,627.53 C 46.175,642.007 57.003,655.952 67.124,667.163 C 80.451,679.916 91.723,689.18 105.327,698.837 C 118.318,706.646 132.65,713.838 146.607,719.511 C 162.534,724.583 175.719,727.614 190.932,729.892 C 204.278,730.862 218.186,730.369 229.861,728.841 C 243.261,725.75 255.95,721.65 266.996,717.072 C 280.557,710.116 293.736,701.942 306.895,692.222 Q 318.309,682.467 330.839,670.205"></path>
    <path d="M 643.503,351.865 C 660.994,336.511 681.343,321.929 702.63,309.977 L 723.737,301.204"></path>
    <path d="M 527.566,493.852 L 366.493,335.922"></path>
    <path d="M 527.566,493.852 L 722.344,689.975"></path>
    <path d="M 620.568,688.285 L 722.344,689.975"></path>
    <path d="M 721.907,587.0 L 722.344,689.975"></path>
    <path d="M 723.7493330183776,301.23968136933394 A 223.03450890080887,223.03450890080887 0 1,1 794.9525347803332,735.0657954210893"></path>
    <path d="M 330.839,670.205 L 643.503,351.865"></path>
  </g>
</svg>