<svg xmlns="http://www.w3.org/2000/svg" viewBox="0 0 42 42" role="img" aria-hidden="true">
  <circle cx="21" cy="21" r="21" fill="#4f83ff"/>
  <svg x="9" y="9" width="24" height="24" viewBox="8.737743377685547 3.963820219039917 1005.4373779296875 1015.5598754882812" overflow="visible">
    <g fill="none" stroke="black" stroke-width="45" stroke-linecap="round" stroke-linejoin="round">
      <path d="M 568.735,660.394 C 555.658,665.092 539.591,669.254 523.435,671.966 C 507.689,673.281 489.537,673.373 470.794,672.262 C 452.872,669.325 433.543,664.357 415.84,658.039 C 398.748,650.294 381.088,640.474 366.119,630.558 C 351.299,619.121 336.915,606.101 324.79,593.422 C 311.963,577.705 301.943,563.373 291.671,545.861 C 283.48,528.881 277.792,514.313 272.366,496.298 C 268.74,479.258 266.431,461.553 265.948,446.589 C 266.956,429.5 269.132,413.96 272.528,399.414 C 277.606,385.033 285.772,367.843 294.699,353.117 Q 304.084,340.359 317.195,325.647"></path>
      <path d="M 649.009,729.304 C 660.654,711.823 668.986,697.228 677.263,679.594 C 681.782,667.558 686.553,649.176 690.275,626.949 C 691.653,609.818 691.806,591.845 690.89,574.424 C 688.077,554.454 683.809,534.617 678.63,517.155 C 671.675,499.257 663.805,482.98 655.765,469.14 C 643.247,451.398 631.299,437.236 616.483,422.328 C 600.763,408.838 586.279,398.406 568.491,387.793 C 552.509,379.966 536.51,373.698 517.74,368.145 C 499.042,364.446 481.694,362.567 461.748,361.9 C 442.043,362.978 422.373,366.111 407.57,370.2 Q 392.812,376.106 376.336,384.991"></path>
      <path d="M 205.158,459.217 L 61.526,609.153"></path>
      <path d="M 317.195,325.647 L 614.836,38.348"></path>
      <path d="M 614.8696283438646,38.4077415768902 A 267.89614494986193,267.89614494986193 0 0,1 935.8729512170574,461.12823448354123"></path>
      <path d="M 934.873,460.13 L 744.825,651.458"></path>
      <path d="M 62.34544572412355,609.791668262737 A 253.74583510579197,253.74583510579197 0 0,0 441.99175461701634,945.1203470808128"></path>
      <path d="M 441.549,944.678 L 649.009,729.304"></path>
    </g>
  </svg>
</svg>